<mxfile host="app.diagrams.net" modified="2023-05-16T07:25:21.033Z" agent="Mozilla/5.0 (Macintosh; Intel Mac OS X 10_15_7) AppleWebKit/537.36 (KHTML, like Gecko) Chrome/113.0.0.0 Safari/537.36" version="21.3.2" etag="jhugZCiNhTxz2aE7Uuyc" type="github">
  <diagram name="Page-1" id="DqwkKe3hmyVvo-4VPZnT">
    <mxGraphModel>
      <root>
        <mxCell id="0" />
        <mxCell id="1" parent="0" />
      </root>
    </mxGraphModel>
  </diagram>
</mxfile>
